# xmcd
#
# Track frame offsets: 
#        150
#        16993
#        33839
#        50686
#        66942
#        85889
#        108676
#        131280
#
# Disc length: 2050 seconds
#
# Revision: 0
# Processed by: cddbd v1.5.2PL0 Copyright (c) Steve Scherf et al.
# Submitted via: ExactAudioCopy v0.99pb4
#
DISCID=65080008
DTITLE=Lil Wayne - A Milli (Promo CDS)
DYEAR=2008
DGENRE=Rap
TTITLE0=A Milli (Clean)
TTITLE1=A Milli
TTITLE2=A Milli (INST)
TTITLE3=A Milli (Acapella)
TTITLE4=Lollipop (Clean ft. Static)
TTITLE5=Lollipop (ft. Static)
TTITLE6=Lollipop (INST)
TTITLE7=Lollipop (Acapella)
EXTD=
EXTT0=
EXTT1=
EXTT2=
EXTT3=
EXTT4=
EXTT5=
EXTT6=
EXTT7=
PLAYORDER=
